<?xml version="1.0" encoding="UTF-8" standalone="no"?>
<!-- Created with Inkscape (http://www.inkscape.org/) -->

<svg
   xmlns:osb="http://www.openswatchbook.org/uri/2009/osb"
   xmlns:dc="http://purl.org/dc/elements/1.1/"
   xmlns:cc="http://creativecommons.org/ns#"
   xmlns:rdf="http://www.w3.org/1999/02/22-rdf-syntax-ns#"
   xmlns:svg="http://www.w3.org/2000/svg"
   xmlns="http://www.w3.org/2000/svg"
   xmlns:sodipodi="http://sodipodi.sourceforge.net/DTD/sodipodi-0.dtd"
   xmlns:inkscape="http://www.inkscape.org/namespaces/inkscape"
   id="svg3390"
   version="1.1"
   inkscape:version="0.91 r13725"
   width="200"
   height="200"
   viewBox="0 0 200 200"
   sodipodi:docname="swift_icon.svg"
   inkscape:export-filename="/home/jnovacek/bc/icon/swift_icon.png"
   inkscape:export-xdpi="10.766789"
   inkscape:export-ydpi="10.766789">
  <metadata
     id="metadata3396">
    <rdf:RDF>
      <cc:Work
         rdf:about="">
        <dc:format>image/svg+xml</dc:format>
        <dc:type
           rdf:resource="http://purl.org/dc/dcmitype/StillImage" />
        <dc:title></dc:title>
      </cc:Work>
    </rdf:RDF>
  </metadata>
  <defs
     id="defs3394">
    <linearGradient
       id="linearGradient4260"
       osb:paint="solid">
      <stop
         style="stop-color:#9f6500;stop-opacity:1;"
         offset="0"
         id="stop4262" />
    </linearGradient>
  </defs>
  <sodipodi:namedview
     pagecolor="#ffffff"
     bordercolor="#666666"
     borderopacity="1"
     objecttolerance="10"
     gridtolerance="10"
     guidetolerance="10"
     inkscape:pageopacity="0"
     inkscape:pageshadow="2"
     inkscape:window-width="1920"
     inkscape:window-height="986"
     id="namedview3392"
     showgrid="false"
     inkscape:zoom="2.828427"
     inkscape:cx="27.564483"
     inkscape:cy="81.867423"
     inkscape:window-x="0"
     inkscape:window-y="27"
     inkscape:window-maximized="1"
     inkscape:current-layer="svg3390"
     fit-margin-top="0"
     fit-margin-left="0"
     fit-margin-right="0"
     fit-margin-bottom="0" />
  <ellipse
     style="opacity:0.93000028;fill:#d9ecff;fill-opacity:1;stroke:none;stroke-width:5;stroke-linejoin:miter;stroke-miterlimit:4.5;stroke-dasharray:none;stroke-opacity:1"
     id="path4192-8"
     cx="99.999985"
     cy="100"
     inkscape:export-xdpi="90"
     inkscape:export-ydpi="90"
     transform="matrix(0,1,1,0,0,0)"
     rx="99.999985"
     ry="100" />
  <path
     style="opacity:1;fill:#56b9e8;fill-opacity:1;stroke:none;stroke-width:5;stroke-linejoin:miter;stroke-miterlimit:4.5;stroke-dasharray:none;stroke-opacity:1"
     clip-path="none"
     d="M 99.999996,2.2370605e-5 A 100.00004,100.00003 0 0 0 79.020016,2.2775424 100.00004,100.00003 0 0 1 138.52595,93.575691 100.00004,100.00003 0 0 1 59.505928,191.2982 100.00004,100.00003 0 0 0 99.999996,200 100.00004,100.00003 0 0 0 200,100.00001 100.00004,100.00003 0 0 0 99.999996,2.2370605e-5 Z"
     id="path4192"
     inkscape:connector-curvature="0" />
  <g
     id="g4946"
     transform="matrix(0.27502032,0,0,0.27502029,16.752864,3.2931824)"
     style="fill:#2f2f2f;fill-opacity:1">
    <g
       id="g4904"
       style="fill:#2f2f2f;fill-opacity:1">
      <g
         id="g4906"
         style="fill:#2f2f2f;fill-opacity:1">
        <path
           id="path4908"
           d="m 551.996,397.247 c -2.596,-5.145 -7.344,-7.013 -12.486,-8.2 -9.281,-2.146 -18.633,-3.994 -28.221,-3.354 -4.814,0.323 -9.588,1.281 -14.377,1.946 -0.572,0.078 -1.143,0.127 -2.262,0.253 1.053,-1.705 1.82,-3.011 2.641,-4.283 4.426,-6.851 6.295,-14.492 7.275,-22.485 2.766,-22.644 0.312,-44.979 -3.682,-67.246 -2.848,-15.868 -4.932,-31.898 -8.494,-47.598 -3.607,-15.888 -8.246,-31.575 -13.088,-47.145 -6.193,-19.918 -12.416,-39.874 -19.812,-59.364 -5.994,-15.79 -13.498,-31.029 -20.779,-46.296 -5.863,-12.289 -12.318,-24.3 -18.654,-36.357 -4.896,-9.314 -10.021,-18.511 -15.047,-27.756 -0.344,-0.632 -0.746,-1.228 -1.123,-1.844 -0.354,-0.061 -0.705,-0.122 -1.061,-0.188 -1.93,5.614 -4.148,11.151 -5.736,16.858 -5.83,20.996 -4.807,42.085 -0.881,63.289 5.209,28.136 10.154,56.32 14.99,84.521 3.439,20.065 6.771,40.123 12.525,59.719 3.484,11.877 3.178,23.75 -1.367,35.577 -4.676,12.172 -9.057,24.447 -16.801,35.084 -2.342,3.215 -5.545,5.794 -8.295,8.72 -6.301,6.695 -12.713,13.288 -18.797,20.176 -5.182,5.862 -10.074,11.995 -14.879,18.176 -1.73,2.224 -3.529,3.272 -6.316,2.808 -8.961,-1.498 -18.006,-2.579 -26.879,-4.468 -11.918,-2.538 -23.881,-5.108 -35.518,-8.67 -30.399,-9.303 -60.432,-18.271 -90.542,-28.467 -9.09,-3.076 -17.324,-8.694 -25.953,-13.138 -0.906,-0.465 -1.836,-0.877 -3.19,-1.521 -0.73,4.904 1.559,8.486 3.823,11.922 117.256,43.117 155.836,70.486 -33.909,92.963 -11.652,1.379 -10.2,7.115 -11.885,8.886 2.154,-0.216 4.316,-0.338 6.455,-0.66 15.728,-2.379 31.399,-5.227 47.185,-7.083 16.609,-1.954 33.325,-3.003 50.004,-4.387 10.074,-0.836 20.216,-2.603 30.225,-2.072 12.729,0.678 25.366,3.187 38.017,5.071 4.492,0.669 8.912,1.82 13.363,2.758 3.283,0.694 4.467,2.416 3.383,5.554 -4.252,12.289 -9.947,23.941 -17.887,34.194 -2.555,3.301 -7.268,5.557 -11.438,6.858 -13.002,4.063 -26.124,7.854 -39.375,11.008 -31.367,7.458 -62.759,14.835 -94.285,21.575 -27.87,5.961 -55.941,10.999 -83.913,16.487 -10.616,2.085 -21.359,1.763 -32.089,2.117 -11.55,0.384 -23.072,1.587 -34.61,2.387 -2.624,0.18 -5.259,0.167 -7.887,0.241 -0.123,0.371 -0.245,0.742 -0.363,1.113 4.451,2.216 8.776,4.762 13.382,6.59 13.941,5.54 28.605,8.106 43.444,9.563 38.638,3.794 77.39,4.161 116.166,3.247 31.424,-0.742 62.775,-2.668 93.881,-7.368 21.346,-3.228 42.574,-7.259 63.941,-10.318 19.641,-2.812 39.287,-5.431 58.643,-9.935 15.381,-3.578 28.914,-10.898 41.852,-19.584 3.514,-2.358 7.021,-4.721 10.449,-7.201 4.35,-3.15 7.344,-7.259 8.145,-12.693 0.273,-1.853 1.092,-2.615 3.018,-2.66 4.746,-0.114 9.482,-0.485 14.232,-0.628 1.322,-0.041 2.533,-0.147 3.582,-0.535 34.059,-3.255 66.242,-21.771 83.877,-50.935 3.516,-3.949 8.375,-6.075 12.668,-8.976 1.578,-1.069 3.02,-2.346 4.797,-3.745 -3.725,-3.546 -7.441,-6.198 -11.904,-7.165 -3.572,-0.77 -6.494,-1.995 -8.178,-5.336 z"
           inkscape:connector-curvature="0"
           style="fill:#2f2f2f;fill-opacity:1" />
      </g>
    </g>
    <g
       id="g4910"
       style="fill:#2f2f2f;fill-opacity:1" />
    <g
       id="g4912"
       style="fill:#2f2f2f;fill-opacity:1" />
    <g
       id="g4914"
       style="fill:#2f2f2f;fill-opacity:1" />
    <g
       id="g4916"
       style="fill:#2f2f2f;fill-opacity:1" />
    <g
       id="g4918"
       style="fill:#2f2f2f;fill-opacity:1" />
    <g
       id="g4920"
       style="fill:#2f2f2f;fill-opacity:1" />
    <g
       id="g4922"
       style="fill:#2f2f2f;fill-opacity:1" />
    <g
       id="g4924"
       style="fill:#2f2f2f;fill-opacity:1" />
    <g
       id="g4926"
       style="fill:#2f2f2f;fill-opacity:1" />
    <g
       id="g4928"
       style="fill:#2f2f2f;fill-opacity:1" />
    <g
       id="g4930"
       style="fill:#2f2f2f;fill-opacity:1" />
    <g
       id="g4932"
       style="fill:#2f2f2f;fill-opacity:1" />
    <g
       id="g4934"
       style="fill:#2f2f2f;fill-opacity:1" />
    <g
       id="g4936"
       style="fill:#2f2f2f;fill-opacity:1" />
    <g
       id="g4938"
       style="fill:#2f2f2f;fill-opacity:1" />
  </g>
</svg>
